<?xml version="1.0" encoding="UTF-8"?>
<svg version="1.1" xmlns="http://www.w3.org/2000/svg" width="265" height="118">
<path d="M0 0 C7.1775 -0.1546875 7.1775 -0.1546875 14.5 -0.3125 C15.99337891 -0.35802002 17.48675781 -0.40354004 19.02539062 -0.45043945 C26.60719287 -0.52945904 32.27286889 -0.32499846 38 5 C41.73648721 9.2186146 42.13320941 14.53008872 42 20 C41.13687565 24.50828342 39.7319415 27.28591073 36.4375 30.5 C34 32 34 32 32 32 C32.71027344 33.03640625 33.42054688 34.0728125 34.15234375 35.140625 C35.08103466 36.51020957 36.00940326 37.88001273 36.9375 39.25 C37.40607422 39.93191406 37.87464844 40.61382812 38.35742188 41.31640625 C38.80537109 41.98027344 39.25332031 42.64414063 39.71484375 43.328125 C40.12855225 43.9355957 40.54226074 44.54306641 40.96850586 45.16894531 C42.05717058 47.10148624 42.56305737 48.83410258 43 51 C38.40157078 51.90815373 34.56438352 52.18243086 30 51 C25.58621769 47.29193709 22.6721944 42.03072263 20 37 C20 36.34 20 35.68 20 35 C17.36 35 14.72 35 12 35 C11.67 40.28 11.34 45.56 11 51 C7.37 51 3.74 51 0 51 C0 34.17 0 17.34 0 0 Z M11 11 C11 15.29 11 19.58 11 24 C13.4178712 24.10826289 15.83087556 24.18739789 18.25 24.25 C18.93191406 24.28351562 19.61382812 24.31703125 20.31640625 24.3515625 C23.76314817 24.41848953 25.65716831 24.24649437 28.48828125 22.2109375 C30.34875117 19.9475194 30.34875117 19.9475194 29.9375 16.375 C29.3249155 12.74483076 29.3249155 12.74483076 26 11 C23.39754502 10.85778935 20.90882316 10.81197068 18.3125 10.875 C17.61060547 10.88402344 16.90871094 10.89304687 16.18554688 10.90234375 C14.45688475 10.92586296 12.72839855 10.96173287 11 11 Z " fill="#0D0D0D" transform="translate(201,34)"/>
<path d="M0 0 C-0.49628906 0.4846875 -0.99257812 0.969375 -1.50390625 1.46875 C-5.67336762 5.58282953 -9.6530127 9.78369421 -13.45703125 14.23828125 C-14.91080366 15.89815811 -16.42141586 17.45933981 -18 19 C-16.51781535 22.13291203 -14.77262186 24.96340221 -12.84765625 27.84375 C-12.23599609 28.76027344 -11.62433594 29.67679688 -10.99414062 30.62109375 C-10.03797852 32.04615234 -10.03797852 32.04615234 -9.0625 33.5 C-8.42892578 34.45003906 -7.79535156 35.40007812 -7.14257812 36.37890625 C-3.84012823 41.36543925 -3.84012823 41.36543925 -0.29467773 46.17773438 C1 48 1 48 1 50 C-3.71319651 51.06674418 -8.4256532 51.87363397 -13 50 C-17.64476728 45.83927164 -20.79485231 40.25449676 -23.89355469 34.90112305 C-24.86648524 33.22940853 -25.92708545 31.60937182 -27 30 C-29.46800047 31.15173355 -31.04783565 32.04783565 -33 34 C-33.27631793 36.324489 -33.44990489 38.66185479 -33.5625 41 C-33.90432802 47.80865604 -33.90432802 47.80865604 -35 50 C-38.63 50 -42.26 50 -46 50 C-47.21983748 47.56032503 -47.12051527 46.00095476 -47.11352539 43.27490234 C-47.11344986 42.29403656 -47.11337433 41.31317078 -47.11329651 40.30258179 C-47.10813522 39.24108917 -47.10297394 38.17959656 -47.09765625 37.0859375 C-47.0962413 36.00116119 -47.09482635 34.91638489 -47.09336853 33.79873657 C-47.08775802 30.32413 -47.07520372 26.84958719 -47.0625 23.375 C-47.05748635 21.02343843 -47.05292321 18.67187585 -47.04882812 16.3203125 C-47.03778517 10.54685032 -47.02051347 4.77343598 -47 -1 C-42.71 -1 -38.42 -1 -34 -1 C-33.67 5.27 -33.34 11.54 -33 18 C-28.31584958 13.39802766 -23.80730018 8.75534201 -19.54296875 3.76171875 C-19.03378906 3.18035156 -18.52460937 2.59898438 -18 2 C-17.57460937 1.44570313 -17.14921875 0.89140625 -16.7109375 0.3203125 C-14.10282619 -1.69233961 -11.68022182 -1.59873398 -8.4375 -1.8125 C-6.70306641 -1.94591797 -6.70306641 -1.94591797 -4.93359375 -2.08203125 C-2 -2 -2 -2 0 0 Z " fill="#0D0D0D" transform="translate(128,35)"/>
<path d="M0 0 C1.23298828 -0.020625 2.46597656 -0.04125 3.73632812 -0.0625 C4.93064453 -0.06765625 6.12496094 -0.0728125 7.35546875 -0.078125 C8.44883545 -0.0874707 9.54220215 -0.09681641 10.66870117 -0.10644531 C15.85566888 0.4816554 18.98871872 2.38877411 22.5625 6.125 C26.26371541 11.26557696 27.36220234 14.87345282 26.8125 21.25 C24.91974253 27.02789123 22.47239689 31.37871802 16.91015625 34.22265625 C10.55690231 36.69272785 4.56452761 36.48282854 -2.1875 36.25 C-2.1875 41.2 -2.1875 46.15 -2.1875 51.25 C-10.68359375 51.34765625 -10.68359375 51.34765625 -13.1875 51.25 C-14.8015925 49.6359075 -14.31484318 47.88523592 -14.31689453 45.65429688 C-14.32004669 44.67658325 -14.32319885 43.69886963 -14.32644653 42.69152832 C-14.3244223 41.62801147 -14.32239807 40.56449463 -14.3203125 39.46875 C-14.32126923 38.38493042 -14.32222595 37.30111084 -14.32321167 36.18444824 C-14.32389365 33.8877761 -14.32203811 31.59110205 -14.31787109 29.29443359 C-14.31252312 25.76525572 -14.3178155 22.23620513 -14.32421875 18.70703125 C-14.32355797 16.48177055 -14.32227682 14.25650993 -14.3203125 12.03125 C-14.32233673 10.96773315 -14.32436096 9.90421631 -14.32644653 8.80847168 C-14.32329437 7.83075806 -14.32014221 6.85304443 -14.31689453 5.84570312 C-14.31609894 4.98046021 -14.31530334 4.11521729 -14.31448364 3.22375488 C-13.96293138 -2.24055514 -4.06138031 0.0167221 0 0 Z M-2.1875 11.25 C-2.1875 15.87 -2.1875 20.49 -2.1875 25.25 C0.65875 25.3428125 0.65875 25.3428125 3.5625 25.4375 C4.62984375 25.47230469 5.6971875 25.50710937 6.796875 25.54296875 C10.16791238 25.21547159 11.50046703 24.69965398 13.8125 22.25 C14.43973208 20.31574514 14.43973208 20.31574514 14.3125 18.25 C14.3228125 17.569375 14.333125 16.88875 14.34375 16.1875 C13.93698215 14.10931201 13.93698215 14.10931201 12.171875 12.51171875 C9.13295844 10.88660277 6.98862843 10.95077842 3.5625 11.0625 C1.665 11.124375 -0.2325 11.18625 -2.1875 11.25 Z " fill="#070707" transform="translate(168.1875,33.75)"/>
<path d="M0 0 C11.22 0 22.44 0 34 0 C34 23.1 34 46.2 34 70 C30.04 70 26.08 70 22 70 C21 69 21 69 20.87974548 66.71580505 C20.88196609 65.70542679 20.88418671 64.69504852 20.88647461 63.65405273 C20.88655014 62.5129454 20.88662567 61.37183807 20.88670349 60.19615173 C20.89186478 58.9545076 20.89702606 57.71286346 20.90234375 56.43359375 C20.9037587 55.16983414 20.90517365 53.90607452 20.90663147 52.60401917 C20.91129418 49.23875111 20.9202852 45.8735501 20.93133545 42.50830078 C20.94155154 39.0765033 20.94612951 35.64469891 20.95117188 32.21289062 C20.9622262 25.47523936 20.97950363 18.73762889 21 12 C14.07 12 7.14 12 0 12 C0 8.04 0 4.08 0 0 Z " fill="#000000" transform="translate(21,15)"/>
<path d="M0 0 C0.80991898 0.00359528 1.61983795 0.00719055 2.45429993 0.01089478 C3.30300659 0.01074875 4.15171326 0.01060272 5.02613831 0.01045227 C7.84523532 0.01115168 10.66426712 0.01894539 13.48335266 0.02676392 C15.43248458 0.028628 17.38161696 0.03005195 19.33074951 0.03105164 C24.47151473 0.03487761 29.61225188 0.04470858 34.75300598 0.05575562 C39.99449789 0.06596802 45.23599431 0.07054889 50.47749329 0.07559204 C60.76982335 0.08633078 71.06213255 0.10340815 81.35444641 0.12442017 C81.35444641 4.08442017 81.35444641 8.04442017 81.35444641 12.12442017 C70.02833011 12.14754271 58.70221938 12.1653348 47.37608433 12.17623234 C42.11747977 12.18146136 36.85889131 12.18855935 31.60029602 12.19985962 C26.52991514 12.21068782 21.45954979 12.21669686 16.38915825 12.21929741 C14.45017693 12.22115178 12.5111965 12.22477262 10.57222176 12.23015022 C7.86622881 12.23735977 5.16030085 12.23841115 2.45429993 12.23794556 C1.23942146 12.24333847 1.23942146 12.24333847 0 12.24884033 C-5.53150143 12.23847233 -5.53150143 12.23847233 -6.64555359 11.12442017 C-6.74379296 9.46012965 -6.7752899 7.79160086 -6.77055359 6.12442017 C-6.77313171 5.21692017 -6.77570984 4.30942017 -6.77836609 3.37442017 C-6.51559876 -1.07716747 -3.82577971 0.00717087 0 0 Z " fill="#161615" transform="translate(160.6455535888672,14.875579833984375)"/>
<path d="M0 0 C4.29 0 8.58 0 13 0 C13 16.83 13 33.66 13 51 C8.71 51 4.42 51 0 51 C0 34.17 0 17.34 0 0 Z " fill="#010101" transform="translate(61,34)"/>
<path d="M0 0 C4.29 0 8.58 0 13 0 C13 16.83 13 33.66 13 51 C9.04 51 5.08 51 1 51 C0.03186746 48.09560239 -0.12144834 46.2718176 -0.11352539 43.25317383 C-0.11344986 42.29240433 -0.11337433 41.33163483 -0.11329651 40.3417511 C-0.10813522 39.30729355 -0.10297394 38.272836 -0.09765625 37.20703125 C-0.0962413 36.14586594 -0.09482635 35.08470062 -0.09336853 33.99137878 C-0.08776606 30.59839065 -0.07521314 27.20546823 -0.0625 23.8125 C-0.05748532 21.51367283 -0.05292236 19.21484462 -0.04882812 16.91601562 C-0.03779583 11.27731838 -0.02052952 5.63867034 0 0 Z " fill="#151515" transform="translate(135,34)"/>
<path d="M0 0 C15.84 0 31.68 0 48 0 C48 3.96 48 7.92 48 12 C32.16 12 16.32 12 0 12 C0 8.04 0 4.08 0 0 Z " fill="#000000" transform="translate(81,15)"/>
<path d="M0 0 C0.66 0 1.32 0 2 0 C2 23.1 2 46.2 2 70 C-1.96 70 -5.92 70 -10 70 C-11 69 -11 69 -11.12025452 66.71580505 C-11.11803391 65.70542679 -11.11581329 64.69504852 -11.11352539 63.65405273 C-11.11344986 62.5129454 -11.11337433 61.37183807 -11.11329651 60.19615173 C-11.10813522 58.9545076 -11.10297394 57.71286346 -11.09765625 56.43359375 C-11.0962413 55.16983414 -11.09482635 53.90607452 -11.09336853 52.60401917 C-11.08870582 49.23875111 -11.0797148 45.8735501 -11.06866455 42.50830078 C-11.05844846 39.0765033 -11.05387049 35.64469891 -11.04882812 32.21289062 C-11.0377738 25.47523936 -11.02049637 18.73762889 -11 12 C-17.6 12 -24.2 12 -31 12 C-31 11.34 -31 10.68 -31 10 C-27.68751813 9.97111854 -24.37506833 9.95324201 -21.0625 9.9375 C-19.64420898 9.92493164 -19.64420898 9.92493164 -18.19726562 9.91210938 C-16.84858398 9.90727539 -16.84858398 9.90727539 -15.47265625 9.90234375 C-14.64000244 9.89710693 -13.80734863 9.89187012 -12.94946289 9.88647461 C-11 10 -11 10 -10 11 C-9.90629376 12.77991924 -9.88255729 14.56356739 -9.88647461 16.34594727 C-9.88655014 17.4870546 -9.88662567 18.62816193 -9.88670349 19.80384827 C-9.89186478 21.0454924 -9.89702606 22.28713654 -9.90234375 23.56640625 C-9.9037587 24.83016586 -9.90517365 26.09392548 -9.90663147 27.39598083 C-9.91129418 30.76124889 -9.9202852 34.1264499 -9.93133545 37.49169922 C-9.94155154 40.9234967 -9.94612951 44.35530109 -9.95117188 47.78710938 C-9.9622262 54.52475824 -9.9789829 61.26237525 -10 68 C-6.7 68 -3.4 68 0 68 C0 45.56 0 23.12 0 0 Z " fill="#535451" transform="translate(53,15)"/>
<path d="M0 0 C4.29 0 8.58 0 13 0 C14.15866723 4.63466892 13.70010994 7.33260039 13 12 C8.71 12 4.42 12 0 12 C0 8.04 0 4.08 0 0 Z " fill="#212120" transform="translate(135,15)"/>
<path d="M0 0 C4.29 0 8.58 0 13 0 C13 3.96 13 7.92 13 12 C8.71 12 4.42 12 0 12 C0 8.04 0 4.08 0 0 Z " fill="#232323" transform="translate(61,15)"/>
<path d="M0 0 C0.66 0 1.32 0 2 0 C2 16.83 2 33.66 2 51 C-1.96 51 -5.92 51 -10 51 C-10 50.34 -10 49.68 -10 49 C-6.7 49 -3.4 49 0 49 C0 32.83 0 16.66 0 0 Z " fill="#6D6D6B" transform="translate(72,34)"/>
<path d="M0 0 C2.67343342 2.67343342 2.96256659 4.51336572 3.25 8.25 C2.88482272 13.72765921 1.21722538 17.42476716 -2.125 21.75 C-9.44161605 27.47604735 -16.99963812 27.31035731 -26 27 C-26 31.95 -26 36.9 -26 42 C-29.63 42 -33.26 42 -37 42 C-37 41.34 -37 40.68 -37 40 C-33.7 40 -30.4 40 -27 40 C-27 35.05 -27 30.1 -27 25 C-24.669375 24.896875 -22.33875 24.79375 -19.9375 24.6875 C-12.87211798 24.26285041 -7.64045775 23.84891494 -2.625 18.4375 C0.13126246 14.30310631 0.10790316 11.869348 0.0625 6.875 C0.05347656 5.59367187 0.04445312 4.31234375 0.03515625 2.9921875 C0.02355469 2.00476562 0.01195312 1.01734375 0 0 Z " fill="#8E8E8E" transform="translate(192,43)"/>
<path d="M0 0 C0.66 0 1.32 0 2 0 C2 3.96 2 7.92 2 12 C-13.84 12 -29.68 12 -46 12 C-45.67 11.34 -45.34 10.68 -45 10 C-30.15 10 -15.3 10 0 10 C0 6.7 0 3.4 0 0 Z " fill="#777775" transform="translate(127,15)"/>
<path d="M0 0 C2.625 0.3125 2.625 0.3125 4.5 2.0625 C5.625 4.3125 5.625 4.3125 5.3125 6.4375 C5.085625 7.05625 4.85875 7.675 4.625 8.3125 C4.625 8.9725 4.625 9.6325 4.625 10.3125 C3.635 9.9825 2.645 9.6525 1.625 9.3125 C1.295 8.6525 0.965 7.9925 0.625 7.3125 C-0.365 8.7975 -0.365 8.7975 -1.375 10.3125 C-2.035 10.3125 -2.695 10.3125 -3.375 10.3125 C-3.40189216 8.83343108 -3.42134621 7.35422517 -3.4375 5.875 C-3.44910156 5.05128906 -3.46070313 4.22757812 -3.47265625 3.37890625 C-3.33148312 0.39168287 -2.96681414 0.39037028 0 0 Z M-0.375 2.3125 C-0.375 3.3025 -0.375 4.2925 -0.375 5.3125 C0.615 4.9825 1.605 4.6525 2.625 4.3125 C2.295 3.6525 1.965 2.9925 1.625 2.3125 C0.965 2.3125 0.305 2.3125 -0.375 2.3125 Z " fill="#676767" transform="translate(150.375,93.6875)"/>
<path d="M0 0 C2.00720923 0.28674418 4.0085944 0.61866701 6 1 C6.625 4.375 6.625 4.375 7 8 C5 10 5 10 1.875 10.125 C0.451875 10.063125 0.451875 10.063125 -1 10 C-1.02689216 8.52093108 -1.04634621 7.04172517 -1.0625 5.5625 C-1.07410156 4.73878906 -1.08570313 3.91507812 -1.09765625 3.06640625 C-1 1 -1 1 0 0 Z M1 2 C1.33 2.99 1.66 3.98 2 5 C2.66 4.34 3.32 3.68 4 3 C3.01 2.67 2.02 2.34 1 2 Z M1 6 C1 6.66 1 7.32 1 8 C1.99 8 2.98 8 4 8 C4 7.34 4 6.68 4 6 C3.01 6 2.02 6 1 6 Z " fill="#848484" transform="translate(43,94)"/>
<path d="M0 0 C5 0 5 0 6.875 1.125 C8.55290631 3.92151052 7.74875648 5.93690532 7 9 C4.69 9.33 2.38 9.66 0 10 C0 6.7 0 3.4 0 0 Z M2 2 C2 3.98 2 5.96 2 8 C3.32 7.34 4.64 6.68 6 6 C5.34 4.68 4.68 3.36 4 2 C3.34 2 2.68 2 2 2 Z " fill="#848483" transform="translate(99,94)"/>
<path d="M0 0 C1.32 1.32 2.64 2.64 4 4 C4.66 2.68 5.32 1.36 6 0 C6.33 0 6.66 0 7 0 C7 3.3 7 6.6 7 10 C6.34 10 5.68 10 5 10 C3.375 8 3.375 8 2 6 C1.34 7.32 0.68 8.64 0 10 C-1 9 -1 9 -1.1328125 7.1875 C-1.13023438 6.465625 -1.12765625 5.74375 -1.125 5 C-1.12757812 4.278125 -1.13015625 3.55625 -1.1328125 2.8125 C-1 1 -1 1 0 0 Z " fill="#737373" transform="translate(85,94)"/>
<path d="M0 0 C2.00720923 0.28674418 4.0085944 0.61866701 6 1 C6 3.97 6 6.94 6 10 C4 10 4 10 2.375 8.5 C1.92125 8.005 1.4675 7.51 1 7 C1 7.99 1 8.98 1 10 C0.34 10 -0.32 10 -1 10 C-1.02689216 8.52093108 -1.04634621 7.04172517 -1.0625 5.5625 C-1.07410156 4.73878906 -1.08570313 3.91507812 -1.09765625 3.06640625 C-1 1 -1 1 0 0 Z M1 2 C1 2.99 1 3.98 1 5 C1.99 4.67 2.98 4.34 4 4 C3.67 3.34 3.34 2.68 3 2 C2.34 2 1.68 2 1 2 Z " fill="#636362" transform="translate(57,94)"/>
<path d="M0 0 C1.4540625 0.0309375 1.4540625 0.0309375 2.9375 0.0625 C2.6075 1.0525 2.2775 2.0425 1.9375 3.0625 C0.6175 2.7325 -0.7025 2.4025 -2.0625 2.0625 C-1.4025 2.7225 -0.7425 3.3825 -0.0625 4.0625 C0.9275 4.0625 1.9175 4.0625 2.9375 4.0625 C2.9375 4.7225 2.9375 5.3825 2.9375 6.0625 C1.2875 6.0625 -0.3625 6.0625 -2.0625 6.0625 C-2.0625 6.7225 -2.0625 7.3825 -2.0625 8.0625 C-0.4125 8.0625 1.2375 8.0625 2.9375 8.0625 C3.2675 8.7225 3.5975 9.3825 3.9375 10.0625 C1.60455225 10.10491723 -0.72952567 10.10342937 -3.0625 10.0625 C-4.0625 9.0625 -4.0625 9.0625 -4.1953125 7.25 C-4.19273437 6.528125 -4.19015625 5.80625 -4.1875 5.0625 C-4.19007813 4.340625 -4.19265625 3.61875 -4.1953125 2.875 C-3.96314697 -0.29337667 -3.23031119 0.06592472 0 0 Z " fill="#7F7F7F" transform="translate(228.0625,93.9375)"/>
<path d="M0 0 C0.66 0.33 1.32 0.66 2 1 C1.57589844 1.4125 1.15179688 1.825 0.71484375 2.25 C-3.16230441 6.06749972 -6.80389286 10.01202241 -10.35546875 14.1328125 C-12.47130895 16.53512038 -14.7024661 18.77208834 -17 21 C-17 19.68 -17 18.36 -17 17 C-16.34 17 -15.68 17 -15 17 C-14.73268066 16.40670898 -14.46536133 15.81341797 -14.18994141 15.20214844 C-12.98415007 12.97066755 -11.7641905 11.5335201 -9.9609375 9.765625 C-9.38085938 9.19199219 -8.80078125 8.61835937 -8.203125 8.02734375 C-7.59984375 7.44082031 -6.9965625 6.85429688 -6.375 6.25 C-5.76398438 5.64800781 -5.15296875 5.04601563 -4.5234375 4.42578125 C-3.02011376 2.94594695 -1.51065144 1.47235324 0 0 Z " fill="#A2A2A3" transform="translate(125,35)"/>
<path d="M0 0 C0.763125 0.20625 1.52625 0.4125 2.3125 0.625 C2.3125 1.285 2.3125 1.945 2.3125 2.625 C0.6625 2.625 -0.9875 2.625 -2.6875 2.625 C-2.6875 3.945 -2.6875 5.265 -2.6875 6.625 C-1.6975 6.955 -0.7075 7.285 0.3125 7.625 C0.3125 6.965 0.3125 6.305 0.3125 5.625 C-0.3475 5.295 -1.0075 4.965 -1.6875 4.625 C-0.6975 4.295 0.2925 3.965 1.3125 3.625 C2.3025 5.11 2.3025 5.11 3.3125 6.625 C2.3225 8.11 2.3225 8.11 1.3125 9.625 C-1.1875 9.9375 -1.1875 9.9375 -3.6875 9.625 C-5.6875 7.625 -5.6875 7.625 -6 4.625 C-5.896875 3.635 -5.79375 2.645 -5.6875 1.625 C-2.6875 -0.375 -2.6875 -0.375 0 0 Z " fill="#838383" transform="translate(206.6875,94.375)"/>
<path d="M0 0 C1.9375 0.6875 1.9375 0.6875 2.9375 2.6875 C1.2875 2.3575 -0.3625 2.0275 -2.0625 1.6875 C-2.0625 2.3475 -2.0625 3.0075 -2.0625 3.6875 C-0.4125 4.0175 1.2375 4.3475 2.9375 4.6875 C2.6075 6.3375 2.2775 7.9875 1.9375 9.6875 C-0.4375 9.875 -0.4375 9.875 -3.0625 9.6875 C-3.7225 8.6975 -4.3825 7.7075 -5.0625 6.6875 C-3.4125 6.6875 -1.7625 6.6875 -0.0625 6.6875 C-1.3825 6.0275 -2.7025 5.3675 -4.0625 4.6875 C-4.0625 3.3675 -4.0625 2.0475 -4.0625 0.6875 C-2.0625 -0.3125 -2.0625 -0.3125 0 0 Z " fill="#6C6C6B" transform="translate(126.0625,94.3125)"/>
<path d="M0 0 C1.67542976 0.28604898 3.34385343 0.61781233 5 1 C5 1.66 5 2.32 5 3 C3.68 3 2.36 3 1 3 C1.639375 3.268125 2.27875 3.53625 2.9375 3.8125 C5 5 5 5 6 8 C4 10 4 10 1.375 10.125 C0.59125 10.08375 -0.1925 10.0425 -1 10 C-1.33 9.01 -1.66 8.02 -2 7 C-0.68 7 0.64 7 2 7 C0.68 6.34 -0.64 5.68 -2 5 C-1.125 1.125 -1.125 1.125 0 0 Z " fill="#6A6A69" transform="translate(239,94)"/>
<path d="M0 0 C1.2065625 0.0309375 1.2065625 0.0309375 2.4375 0.0625 C2.7675 0.7225 3.0975 1.3825 3.4375 2.0625 C1.7875 2.0625 0.1375 2.0625 -1.5625 2.0625 C-1.5625 2.7225 -1.5625 3.3825 -1.5625 4.0625 C-0.2425 4.0625 1.0775 4.0625 2.4375 4.0625 C2.4375 4.7225 2.4375 5.3825 2.4375 6.0625 C1.1175 6.0625 -0.2025 6.0625 -1.5625 6.0625 C-1.5625 6.7225 -1.5625 7.3825 -1.5625 8.0625 C0.0875 8.0625 1.7375 8.0625 3.4375 8.0625 C3.4375 8.7225 3.4375 9.3825 3.4375 10.0625 C1.1275 10.0625 -1.1825 10.0625 -3.5625 10.0625 C-3.58939216 8.58343108 -3.60884621 7.10422517 -3.625 5.625 C-3.63660156 4.80128906 -3.64820313 3.97757812 -3.66015625 3.12890625 C-3.51340586 0.02366796 -3.12550237 0.07623177 0 0 Z " fill="#848484" transform="translate(191.5625,93.9375)"/>
<path d="M0 0 C2.33936818 2.12669835 3.80653848 4.06224856 5 7 C5 7.99 5 8.98 5 10 C4.34 10 3.68 10 3 10 C3 9.34 3 8.68 3 8 C1.68 8 0.36 8 -1 8 C-1.33 8.66 -1.66 9.32 -2 10 C-2.66 10 -3.32 10 -4 10 C-3.5205537 5.78087253 -2.83374881 3.20336822 0 0 Z M0 4 C1 6 1 6 1 6 Z " fill="#707070" transform="translate(165,94)"/>
<path d="M0 0 C2.33936818 2.12669835 3.80653848 4.06224856 5 7 C5 7.99 5 8.98 5 10 C4.34 10 3.68 10 3 10 C3 9.34 3 8.68 3 8 C0.61435923 8.57584432 -1.66682784 9.22227595 -4 10 C-3.52449439 8.51965236 -3.04448784 7.04074979 -2.5625 5.5625 C-2.29566406 4.73878906 -2.02882813 3.91507812 -1.75390625 3.06640625 C-1 1 -1 1 0 0 Z M0 4 C1 6 1 6 1 6 Z " fill="#727273" transform="translate(73,94)"/>
<path d="M0 0 C2.78445797 4.68393317 2.12647745 8.82473406 1 14 C-0.85974379 17.71948759 -1.91076047 19.49337696 -5.6875 21.25 C-6.450625 21.4975 -7.21375 21.745 -8 22 C-8.33 22.66 -8.66 23.32 -9 24 C-9.33 23.01 -9.66 22.02 -10 21 C-5.25 18 -5.25 18 -3 18 C-1.15433468 14.01606389 -0.63977171 10.55623317 -0.375 6.1875 C-0.30023438 5.02605469 -0.22546875 3.86460938 -0.1484375 2.66796875 C-0.09945312 1.78753906 -0.05046875 0.90710937 0 0 Z " fill="#919190" transform="translate(241,44)"/>
<path d="M0 0 C1.134375 0.020625 2.26875 0.04125 3.4375 0.0625 C3.4375 0.7225 3.4375 1.3825 3.4375 2.0625 C2.4475 2.5575 2.4475 2.5575 1.4375 3.0625 C1.03020772 5.38406597 0.69311323 7.7193787 0.4375 10.0625 C-0.2225 10.0625 -0.8825 10.0625 -1.5625 10.0625 C-1.5625 7.4225 -1.5625 4.7825 -1.5625 2.0625 C-2.5525 1.7325 -3.5425 1.4025 -4.5625 1.0625 C-3.5625 0.0625 -3.5625 0.0625 0 0 Z " fill="#777777" transform="translate(178.5625,93.9375)"/>
<path d="M0 0 C0.99 0.66 1.98 1.32 3 2 C3 2.99 3 3.98 3 5 C-1.29 5 -5.58 5 -10 5 C-10.33 4.34 -10.66 3.68 -11 3 C-5.555 2.505 -5.555 2.505 0 2 C0 1.34 0 0.68 0 0 Z " fill="#707070" transform="translate(241,80)"/>
<path d="M0 0 C0 0.66 0 1.32 0 2 C-4.62 2 -9.24 2 -14 2 C-14.33 1.34 -14.66 0.68 -15 0 C-12.87562788 -0.19448477 -10.75046809 -0.38038289 -8.625 -0.5625 C-7.44164063 -0.66691406 -6.25828125 -0.77132812 -5.0390625 -0.87890625 C-2 -1 -2 -1 0 0 Z " fill="#747474" transform="translate(129,83)"/>
<path d="M0 0 C1.134375 0.020625 2.26875 0.04125 3.4375 0.0625 C3.4375 0.7225 3.4375 1.3825 3.4375 2.0625 C2.4475 2.0625 1.4575 2.0625 0.4375 2.0625 C0.4375 4.7025 0.4375 7.3425 0.4375 10.0625 C-0.2225 10.0625 -0.8825 10.0625 -1.5625 10.0625 C-1.5625 7.4225 -1.5625 4.7825 -1.5625 2.0625 C-2.5525 1.7325 -3.5425 1.4025 -4.5625 1.0625 C-3.5625 0.0625 -3.5625 0.0625 0 0 Z " fill="#80807F" transform="translate(138.5625,93.9375)"/>
<path d="M0 0 C2.97 0.495 2.97 0.495 6 1 C5.67 3.31 5.34 5.62 5 8 C4.67 7.34 4.34 6.68 4 6 C1.97536745 5.34786708 1.97536745 5.34786708 0 5 C0 3.35 0 1.7 0 0 Z M1 2 C1.33 2.99 1.66 3.98 2 5 C2.66 4.34 3.32 3.68 4 3 C3.01 2.67 2.02 2.34 1 2 Z " fill="#626262" transform="translate(43,94)"/>
<path d="M0 0 C2.3125 -0.25 2.3125 -0.25 5 0 C6.8125 2 6.8125 2 8 4 C6.02 4.99 6.02 4.99 4 6 C4 5.01 4 4.02 4 3 C2.68 3.33 1.36 3.66 0 4 C0 2.68 0 1.36 0 0 Z " fill="#828282" transform="translate(148,94)"/>
<path d="M0 0 C1.32 0.33 2.64 0.66 4 1 C3.34 1 2.68 1 2 1 C2.185625 1.5775 2.37125 2.155 2.5625 2.75 C3.04023546 5.20692525 2.75729364 6.64397534 2 9 C1.34 9 0.68 9 0 9 C0 6.03 0 3.06 0 0 Z " fill="#989897" transform="translate(56,95)"/>
<path d="M0 0 C0.66 0 1.32 0 2 0 C2 3.3 2 6.6 2 10 C1.34 10 0.68 10 0 10 C0 6.7 0 3.4 0 0 Z " fill="#9B9B9A" transform="translate(216,94)"/>
<path d="M0 0 C0.33 0.99 0.66 1.98 1 3 C0 4 0 4 -2.4375 4.25 C-3.283125 4.1675 -4.12875 4.085 -5 4 C-5.66 3.01 -6.32 2.02 -7 1 C-5.5459375 1.0309375 -5.5459375 1.0309375 -4.0625 1.0625 C-1.12534105 1.35618499 -1.12534105 1.35618499 0 0 Z " fill="#888787" transform="translate(128,100)"/>
<path d="M0 0 C0.66 0.66 1.32 1.32 2 2 C0 4 0 4 -2.625 4.125 C-3.40875 4.08375 -4.1925 4.0425 -5 4 C-5.33 3.01 -5.66 2.02 -6 1 C-3.03 1.495 -3.03 1.495 0 2 C0 1.34 0 0.68 0 0 Z " fill="#818181" transform="translate(243,100)"/>
<path d="M0 0 C0.66 0.66 1.32 1.32 2 2 C1.67 2.99 1.34 3.98 1 5 C0.96125079 6.66621616 0.9549714 8.33394172 1 10 C0.34 9.67 -0.32 9.34 -1 9 C-1.09765625 2.84765625 -1.09765625 2.84765625 -1 1 C-0.67 0.67 -0.34 0.34 0 0 Z " fill="#5E5E5D" transform="translate(85,94)"/>
</svg>
